<svg xmlns="http://www.w3.org/2000/svg" viewBox="0 0 100 100">
  <!-- Maximum size circle with minimal padding -->
  <circle cx="50" cy="50" r="49.5" fill="#000000"/>
  
  <!-- ND Logo - MAXIMUM SIZE for visibility -->
  <g transform="translate(50, 50) scale(1.8)">
    <!-- D shape -->
    <path d="M -20,-18 L -20,18 L -8,18 C 8,18 18,8 18,0 C 18,-8 8,-18 -8,-18 Z M -12,-12 L -8,-12 C 4,-12 12,-4 12,0 C 12,4 4,12 -8,12 L -12,12 Z" fill="#ffffff"/>
    
    <!-- N shape -->
    <path d="M -18,-18 L -18,18 L -12,18 L -12,-6 L 6,18 L 12,18 L 12,-18 L 6,-18 L 6,6 L -12,-18 Z" fill="#ffffff"/>
    
    <!-- Bottom curve accent -->
    <path d="M -20,20 Q -10,24 0,20 Q 10,16 20,20 L 18,16 Q 10,12 0,16 Q -10,12 -18,16 Z" fill="#ffffff"/>
  </g>
</svg>
